<svg xmlns="http://www.w3.org/2000/svg" version="1.1" xmlns:xlink="http://www.w3.org/1999/xlink" width="1000" height="1000"><g clip-path="url(#SvgjsClipPath1578)"><rect width="1000" height="1000" fill="#242b33"></rect><g transform="matrix(5.9171597633136095,0,0,5.9171597633136095,0,307.6923076923077)"><svg xmlns="http://www.w3.org/2000/svg" version="1.1" xmlns:xlink="http://www.w3.org/1999/xlink" width="169" height="65"><svg viewBox="0 0 169 65" xmlns="http://www.w3.org/2000/svg" xmlns:xlink="http://www.w3.org/1999/xlink" width="169.000000" height="65.000000" fill="none" clip-path="url(#clipPath_2)" customframe="url(#clipPath_2)">
	<defs>
		<clipPath id="clipPath_2">
			<rect width="169.000000" height="65.000000" x="0.000000" y="0.000000" rx="10.000000" fill="rgb(255,255,255)"></rect>
		</clipPath>
	<clipPath id="SvgjsClipPath1578"><rect width="1000" height="1000" x="0" y="0" rx="450" ry="450"></rect></clipPath></defs>
	<rect id="фрейм 1" width="169.000000" height="65.000000" x="0.000000" y="0.000000" rx="10.000000" fill="rgb(36,43,51)"></rect>
	<g id="first-screen__logo">
		<path id="LoftHouse" d="M19.4414 42L19.4414 17.3906L22.5 17.3906L22.5 38.9766L32.6602 38.9766L32.6602 42L19.4414 42ZM34.6289 36.7969L34.6289 28.1133Q34.6289 26.4609 36.1055 24.8789Q37.9336 22.9805 40.6758 22.9805L40.6758 25.8281Q38.6016 25.8281 37.793 27.5508Q37.5469 28.0781 37.5469 28.6055L37.5469 36.3398Q37.5469 37.6406 38.7422 38.5547Q39.5859 39.1875 40.6758 39.1875L40.6758 42.0352Q37.3359 42.0352 35.5078 39.3281Q34.6289 37.9922 34.6289 36.7969ZM42.1875 42.0352L42.1875 39.1875Q44.0508 39.1875 44.8594 37.5Q45.1406 36.9375 45.1406 36.4102L45.1406 28.6055Q45.1406 27.1641 43.9102 26.3203Q43.1367 25.8281 42.1523 25.8281L42.1523 22.9805Q45.3867 22.9805 47.1445 25.6172Q48.0234 26.918 48.0234 28.1133L48.0234 36.7969Q48.0234 38.5195 46.5469 40.1367Q44.8242 42 42.1875 42.0352ZM50.168 27.4102L50.168 24.5273L52.4883 24.5273L52.4883 22.4883Q52.4883 20.5195 53.7891 18.9023Q55.2305 17.2148 57.5156 17.1797L58.8164 17.1797L58.1484 20.0273L57.4805 20.0273Q55.4766 20.1328 55.4414 22.4883L55.4414 24.5625L57.832 24.5273L57.832 27.4102L55.4414 27.4102L55.4414 42L52.4883 42L52.4883 27.4102L50.168 27.4102ZM59.8008 26.0391L59.8008 23.1914L62.1211 23.1914L62.1211 17.1094L65.1094 17.1094L65.1094 23.1914L67.3594 23.1914L67.3594 26.0742L65.1094 26.0742L65.1094 36.1641Q65.1094 38.6602 67.1484 38.9414Q67.5352 39.0117 67.9219 39.0117L68.4141 39.0117L69.082 42L67.8164 42Q63.4922 41.9648 62.5078 38.7656Q62.1562 37.5703 62.1562 35.8125L62.1211 26.0391L59.8008 26.0391ZM70.6641 42L70.6641 17.3906L73.7227 17.3906L73.7227 28.1133L76.8867 28.1133L76.8867 31.1016L73.7227 31.1016L73.7227 42L70.6641 42ZM78.6445 31.1016L78.6445 28.1133L81.7734 28.1133L81.7734 17.3906L84.8672 17.3906L84.8672 42L81.7734 42L81.7734 31.1016L78.6445 31.1016ZM87.6094 36.7969L87.6094 28.1133Q87.6094 26.4609 89.0859 24.8789Q90.9141 22.9805 93.6562 22.9805L93.6562 25.8281Q91.582 25.8281 90.7734 27.5508Q90.5273 28.0781 90.5273 28.6055L90.5273 36.3398Q90.5273 37.6406 91.7227 38.5547Q92.5664 39.1875 93.6562 39.1875L93.6562 42.0352Q90.3164 42.0352 88.4883 39.3281Q87.6094 37.9922 87.6094 36.7969ZM95.168 42.0352L95.168 39.1875Q97.0312 39.1875 97.8398 37.5Q98.1211 36.9375 98.1211 36.4102L98.1211 28.6055Q98.1211 27.1641 96.8906 26.3203Q96.1172 25.8281 95.1328 25.8281L95.1328 22.9805Q98.3672 22.9805 100.125 25.6172Q101.004 26.918 101.004 28.1133L101.004 36.7969Q101.004 38.5195 99.5273 40.1367Q97.8047 42 95.168 42.0352ZM103.676 36.9375L103.676 23.0156L106.664 23.0156L106.664 36.5859Q106.664 37.8516 107.93 38.6953Q108.773 39.2227 109.793 39.2227L109.793 42.1758Q106.418 42.1758 104.59 39.5391Q103.676 38.2031 103.676 36.9375ZM111.34 42.1758L111.34 39.2227Q113.238 39.2227 114.117 37.7109Q114.434 37.1484 114.434 36.5859L114.434 23.0156L117.422 23.0156L117.422 36.9375Q117.422 38.5898 115.91 40.207Q114.082 42.1406 111.34 42.1758ZM119.461 37.0078L122.238 36.4805Q122.238 38.0625 123.891 38.9766Q124.699 39.3633 125.438 39.3984L125.438 42.1758Q122.027 42.1758 120.34 39.7148Q119.461 38.4141 119.461 37.0078ZM119.637 28.3594Q119.637 25.1602 122.555 23.6133Q123.961 22.875 125.367 22.875L125.367 25.6172Q123.75 25.6172 122.871 26.9531Q122.414 27.6211 122.414 28.3594Q122.414 29.4844 124.172 30.1875Q125.508 30.75 129.34 31.6641Q131.73 32.1562 132.75 34.0195Q133.277 35.0039 133.277 36.2344Q133.277 39.6094 130.57 41.2266Q128.988 42.1758 126.949 42.1758L126.949 39.3984Q128.566 39.3984 129.656 38.2734Q130.43 37.4648 130.43 36.375Q130.43 34.9688 127.652 34.125Q126.949 33.9141 125.402 33.5273Q123.75 33.1406 123.012 32.8945Q120.34 31.8398 119.777 29.6953Q119.637 29.0625 119.637 28.3594ZM126.914 25.6523L126.914 22.875Q129.938 22.875 131.801 25.125Q132.961 26.5664 132.961 28.1484L130.184 28.6055Q130.184 26.6719 128.074 25.8984Q127.441 25.6523 126.914 25.6523ZM135.352 36.7969L135.352 28.0781Q135.387 26.4609 136.898 24.8789Q138.727 23.0156 141.328 22.9805L141.328 25.7578Q139.641 25.7578 138.691 27.2344Q138.305 27.8672 138.305 28.3945L138.305 30.7852L146.18 30.7852L146.18 28.3945Q146.18 26.8125 144.562 26.0742Q143.824 25.7227 143.051 25.7227L143.051 22.9805Q145.477 22.9805 147.375 24.7031Q148.957 26.2148 148.992 28.043L148.992 33.6328L138.305 33.6328L138.305 36.7969Q138.305 37.7812 139.43 38.625Q140.344 39.2578 141.363 39.2578L141.363 42Q138.164 42 136.336 39.3984Q135.352 38.0273 135.352 36.7969ZM143.051 42L143.051 39.2227Q145.16 39.2227 146.215 37.3945Q146.426 37.0078 146.531 36.6562L149.027 37.5703Q148.395 39.9961 146.145 41.2266Q144.703 42 143.051 42Z" fill="rgb(255,255,255)" fill-rule="nonzero"></path>
	</g>
</svg></svg></g></g></svg>